<?xml version="1.0" encoding="UTF-8"?>
<!DOCTYPE svg PUBLIC "-//W3C//DTD SVG 1.1//EN" "http://www.w3.org/Graphics/SVG/1.1/DTD/svg11.dtd">
<!-- Creator: CorelDRAW X7 -->
<svg xmlns="http://www.w3.org/2000/svg" xml:space="preserve" width="34.1257mm" height="35.8908mm" version="1.1" style="shape-rendering:geometricPrecision; text-rendering:geometricPrecision; image-rendering:optimizeQuality; fill-rule:evenodd; clip-rule:evenodd"
viewBox="0 0 291140850 306199668"
 xmlns:xlink="http://www.w3.org/1999/xlink">
 <defs>
  <style type="text/css">
   <![CDATA[
    .fil0 {fill:#8FC74A}
    .fil1 {fill:#F7F7F7}
   ]]>
  </style>
 </defs>
 <g id="Layer_x0020_1">
  <metadata id="CorelCorpID_0Corel-Layer"/>
  <rect class="fil0" x="132" width="291140520" height="306199368" rx="25098429" ry="25098429"/>
  <path class="fil1" d="M97663488 68352924c-15321586,-6998328 -21014606,16846152 -43677484,9444287 3152362,70128314 28321772,21487247 52272894,27216952 2632798,7746534 13298786,64247603 12599209,69208626l-75910914 59223446c-3896301,2776979 -9788957,6092291 -5116295,11619801 5614531,5791132 15233712,-5995885 26678619,-14499157 9033926,-6711672 17246276,-13055639 25866427,-20129897l37795919 -29731163c4490089,-3827197 8428195,-6808077 17040669,-5759565 13677580,1665334 64509517,45091141 79518853,55679492 11285369,7959820 19820206,18160845 28197213,17194234 4467054,-7294368 1337727,-8489621 -4846703,-13212618l-55568584 -42145239c-18196676,-13787636 -11682933,-10918518 -14026515,-59381278 28911293,-16043344 21785846,-22304557 10076466,-38713900 -14258571,-19984010 -17136221,-2471554 -31211366,-7430018 -16312937,-5747621 -16949382,3711170 -28426708,15552788l-8101441 9038191c-5000268,5230617 -19622,1296777 -5260477,3878386l-9397364 -52754919 -6021480 2348701c-237174,200488 -494823,553689 -700430,766975l-1780508 2585875zm21482981 60351300l6953964 38990319 9942523 -3705198c-9307784,-29853162 11580556,-19054938 11161664,-40684659 -118587,-6133242 -1080932,-12978004 -1620118,-18770842l-26438033 24170380zm29163823 24461302c304572,1753208 860821,5850851 1324931,7430018 2255708,7674017 -1086051,2585022 4492648,5586377 2710434,1458874 10270982,4955905 12130833,5489119 -449606,-4712759 -1048512,-9469028 -1702872,-14211648 -639004,-4630857 -967464,-10693288 -3373326,-14447968l-6504358 5298868c-2377708,2046689 -4043042,3290571 -6367856,4855234z"/>
  <path class="fil1" d="M53441699 247901029l183696084 -853 -59708884 -44225201 2329079 15005070c-6171633,-2983439 -20420819,-11856121 -26253754,-13524015l-17506484 18098565 -5530923 -17669434 -16873453 6983824 -1281420 -11607003 -58870245 46939047z"/>
  <path class="fil1" d="M157253785 59824058c-15236272,7382242 -4816843,28288499 10251360,22380488 13707441,-5374798 5990767,-30249874 -10251360,-22380488z"/>
 </g>
</svg>
